inDegrees=yes
name=ik_S47_A10_T02
DataType=double
version=3
OpenSimVersion=4.3-2021-08-27-4bc7ad9
endheader
time	pelvis_tilt	pelvis_list	pelvis_rotation	pelvis_tx	pelvis_ty	pelvis_tz	hip_flexion_r	hip_adduction_r	hip_rotation_r	knee_angle_r	knee_angle_r_beta	ankle_angle_r	subtalar_angle_r	mtp_angle_r	hip_flexion_l	hip_adduction_l	hip_rotation_l	knee_angle_l	knee_angle_l_beta	ankle_angle_l	subtalar_angle_l	mtp_angle_l	lumbar_extension	lumbar_bending	lumbar_rotation	arm_flex_r	arm_add_r	arm_rot_r	elbow_flex_r	pro_sup_r	wrist_flex_r	wrist_dev_r	arm_flex_l	arm_add_l	arm_rot_l	elbow_flex_l	pro_sup_l	wrist_flex_l	wrist_dev_l
4.819999999999985	-0.8335061734882957	1.250399640305407	20.16724307143897	0	0.9399999999999999	0	39.96734564564458	-9.941741791967598	-9.772203137047253	47.71504755399999	0.8327846825629666	0	0	0	39.96734564564458	-9.941741791967598	-9.772203137047253	47.71504755399999	0.8327846825629666	0	0	0	-0.2140574278050491	1.156309953058541	8.744192692153543	89.06947377804454	8.286382757055183	16.14113518452111	69.67282951604538	61.89029229755371	0	0	89.13693105003796	8.80477785914565	13.58442914914303	53.55072102020637	24.99057501475319	0	0
4.839999999999985	-0.875923580104833	1.243222473331477	20.28441850618956	0	0.9399999999999999	0	40.10844203467548	-9.94558256649862	-9.783395479832519	47.89464503435619	0.8359192499234682	0	0	0	40.10844203467548	-9.94558256649862	-9.783395479832519	47.89464503435619	0.8359192499234682	0	0	0	-0.2470221204292884	1.121765672920712	8.550313801292157	85.36378815234352	7.129775809960671	16.46847381737188	70.81081475834138	61.74051051972451	0	0	81.77182372555748	6.906701332048947	14.8109546502673	57.69861340950149	25.26462398866423	0	0
4.859999999999984	-0.9805122294859079	1.187881071974054	20.16304926309406	0	0.9399999999999999	0	40.23512602158325	-9.948821858042084	-9.793084337904707	48.05937904889372	0.8387944008671763	0	0	0	40.23512602158325	-9.948821858042084	-9.793084337904707	48.05937904889372	0.8387944008671763	0	0	0	-0.3587004174346922	1.072921007843421	8.526844451718876	81.59247048661655	5.619306672618615	16.10148960707595	75.03601625696265	62.48008238795339	0	0	77.778909784147	6.183216115958918	15.62908096138139	57.74850135019047	26.89025033405218	0	0
4.879999999999984	-1.043449911529491	1.107763408756458	20.07001360907788	0	0.9399999999999999	0	40.3596451321359	-9.951920034157506	-9.802479980255486	48.21991753675304	0.8415963260564944	0	0	0	40.3596451321359	-9.951920034157506	-9.802479980255486	48.21991753675304	0.8415963260564944	0	0	0	-0.4531088908326579	1.028125507443773	8.56570604496352	78.02392765205195	4.304896236333578	15.00568230618845	74.61617039781737	67.53106504245544	0	0	73.94945349751694	4.411928421669989	16.9896916222897	57.87345971004279	26.88703608437034	0	0
4.899999999999983	-1.234890523057524	0.9296195835791138	19.96031593605484	0	0.9399999999999999	0	40.43943838306245	-9.95382199204496	-9.808351694005452	48.32399541369486	0.8434128276876146	0	0	0	40.43943838306245	-9.95382199204496	-9.808351694005452	48.32399541369486	0.8434128276876146	0	0	0	-0.6949227221541232	0.9259848787545197	8.372577041089709	75.48502236374989	3.396036319637277	13.27065690813701	73.03357551746801	65.51119084206699	0	0	70.92736599597644	2.736932946132848	16.63022986783726	57.0906573777547	26.09244362430971	0	0
4.919999999999983	-1.343412563011571	0.834978954832068	19.97272925287311	0	0.9399999999999999	0	40.53366778759864	-9.956049526088774	-9.815264979001132	48.44545994641548	0.8455327837079857	0	0	0	40.53366778759864	-9.956049526088774	-9.815264979001132	48.44545994641548	0.8455327837079857	0	0	0	-0.8338818067311562	0.883033921411041	8.246379827381981	72.71428406160425	2.535624581639768	11.09134796748589	70.68650018241135	63.12284105049577	0	0	67.99908712151796	2.019186852825801	14.78258469809994	55.11718581285485	26.26495712211369	0	0
4.939999999999983	-1.433753476182927	0.852754837178646	20.27404806699723	0	0.9399999999999999	0	40.62538775933373	-9.958294729425278	-9.822135432362748	48.5604678230848	0.847540049821593	0	0	0	40.62538775933373	-9.958294729425278	-9.822135432362748	48.5604678230848	0.847540049821593	0	0	0	-0.8435101497063949	0.8127784274888022	7.864588628202068	72.24292805800521	3.935474251446959	11.67655212886499	58.11382230137725	59.76817795709899	0	0	64.48610890251396	1.671492975562839	13.69297902724976	52.88391676339675	27.19974789134939	0	0
